# xmcd CD database file generated by OrangeCD 5.2
#
# Track frame offsets:
#	150
#	15525
#	27690
#	42817
#	59647
#	72447
#	88642
#	103867
#	121700
#	134807
#	153102
#	165667
#	182625
#	200165
#	216402
#	236552
#	253770
#	270657
#
# Disc length: 3864 seconds
#
# Revision: 2
# Processed by: cddbd v1.5.1PL0 Copyright (c) Steve Scherf et al.
# Submitted via: OrangeCD 5.2
#
DISCID=0e0f1612
DTITLE=Shania Twain - The Complete Limilight Sessions
DYEAR=1900
DGENRE=Country
TTITLE0=It's Alright
TTITLE1=Love
TTITLE2=All Fired Up, No Place To Go
TTITLE3=The Heart Is Blind
TTITLE4=For the Love
TTITLE5=Wild and Wicked
TTITLE6=I Ain't Gonna Eat Out My Heart Anymore
TTITLE7=Send It With Love
TTITLE8=Half Breed
TTITLE9=Hate to Love
TTITLE10=Bite My Lip
TTITLE11=Two Hearts One Love
TTITLE12=Rhythm Made Me Do It
TTITLE13=Luv Eyes
TTITLE14=Lost My Heart
TTITLE15=Don't Give Me That
TTITLE16=It's Alright (Edited Club Mix)
TTITLE17=The Heart Is Blind (single Version)
EXTD=
EXTT0=
EXTT1=
EXTT2=
EXTT3=
EXTT4=
EXTT5=
EXTT6=
EXTT7=
EXTT8=
EXTT9=
EXTT10=
EXTT11=
EXTT12=
EXTT13=
EXTT14=
EXTT15=
EXTT16=
EXTT17=
PLAYORDER=
